<svg xmlns="http://www.w3.org/2000/svg" viewBox="0 0 441.27 441.27" width="512" height="512"><path d="M363.5 251.84l-.5-18.69a53.28 53.28 0 0 1-40.54 1.3l-3.46-1.3-1.01 18.9-1.43 26.83 12.78 76.94h22.1l12.79-76.94-.73-27.04z" fill="#9b6121"/><path d="M139 213.4v141.75H20v-144h119v2.25zM266.01 300.65h143.67v15H266.01zM266.01 327.15h143.67v15H266.01z" fill="#eab932"/><path fill="#ffd039" d="M399.11 308.15v-18.28l12.78-10.99 12.79 10.99v65.95h-25.57zM377.01 308.15v47.67h-25.57v-65.95l12.79-10.99 12.78 10.99zM303.77 308.15v-18.28l12.79-10.99 12.78 10.99v65.95h-25.57zM281.68 308.15v47.67h-25.57v-65.95l12.78-10.99 12.79 10.99z"/><path d="M422.23 148.59v24.72c0 22.6-9.16 43.06-23.97 57.87a81.92 81.92 0 0 1-34.76 20.66l-.5-18.69a53.28 53.28 0 0 1-40.54 1.3l-3.46-1.3-1.01 18.9a81.9 81.9 0 0 1-59.43-78.74v-24.72a81.85 81.85 0 0 1 81.84-81.84 81.84 81.84 0 0 1 81.83 81.84z" fill="#0fbc30"/><path d="M383.23 187.59v24.72a81.36 81.36 0 0 1-7.85 35 80.85 80.85 0 0 1-11.88 4.53l-.5-18.69a53.28 53.28 0 0 1-40.54 1.3l-3.46-1.3-1.01 18.9a81.9 81.9 0 0 1-59.43-78.74v-24.72a81.5 81.5 0 0 1 7.84-35 81.84 81.84 0 0 1 116.83 74z" fill="#07a521"/><path fill="#ffd039" d="M222.77 221.15v134H133v-134z"/><path fill="#ed2e2e" d="M159 269.31h37.77v85.84H159z"/><path fill="#d82525" d="M185 269.31h11.77v85.84H185zM184.36 152.42h-56.7l-.01-.01-50.65.01H52.41L0 227.15h133l63.54-7.35 40.23 7.35-37.23-31.35z"/><path fill="#ed2e2e" d="M184.36 152.42l52.41 74.73H131.94z"/><path fill="#3b9dff" d="M50 269.15h55.08v45H50z"/><path fill="#999" d="M104 124.79l8.04 27.51-8.04 37.49H77v-65h26.21z"/><g fill="#ed2e2e"><circle cx="377" cy="202.15" r="7.5"/><circle cx="295" cy="210.15" r="7.5"/><circle cx="304" cy="141.15" r="7.5"/><circle cx="339" cy="169.15" r="7.5"/><circle cx="379" cy="132.15" r="7.5"/><circle cx="340" cy="102.15" r="7.5"/></g><path fill="#ccc" d="M130.21 124.79v27.63h-.01l-2.55 3.63L104 189.79v-65z"/><g><path d="M441.27 374.52H1.8a25.33 25.33 0 0 1 7.47-18.02 25.4 25.4 0 0 1 18.03-7.47h388.48a25.49 25.49 0 0 1 25.5 25.5z" fill="#0fbc30"/><path d="M441.27 374.52H1.8c0-4.43 1.13-8.59 3.12-12.22h433.24a25.33 25.33 0 0 1 3.11 12.22z" fill="#07a521"/></g></svg>