<svg xmlns="http://www.w3.org/2000/svg" viewBox="0 0 362.66 512"><defs><style>.a{fill:#455a64}</style></defs><path class="a" d="M181.33 0A138.85 138.85 0 0 0 42.66 138.67V224a10.67 10.67 0 0 0 10.67 10.67H96A10.67 10.67 0 0 0 106.66 224v-85.33a74.67 74.67 0 0 1 149.34-.06V224a10.66 10.66 0 0 0 10.66 10.67h42.67A10.67 10.67 0 0 0 320 224v-85.33A138.84 138.84 0 0 0 181.33 0z"/><path d="M53.33 213.33h256a53.33 53.33 0 0 1 53.33 53.33v192.01A53.33 53.33 0 0 1 309.33 512h-256A53.33 53.33 0 0 1 0 458.67v-192a53.33 53.33 0 0 1 53.32-53.34z" fill="#ffc107"/><path class="a" d="M234.66 330.67a53.33 53.33 0 1 0-76.99 47.57l-8.23 57.6A10.67 10.67 0 0 0 160 448h42.66a10.67 10.67 0 0 0 10.67-12.18l-8.24-57.6a53.52 53.52 0 0 0 29.57-47.55z"/></svg>