<svg xmlns="http://www.w3.org/2000/svg" viewBox="0 0 858.18 858.18"><path fill="#a1b1b7" d="M555.22 494.71l62.66 62.66a42.79 42.79 0 0 1 60.5 0l151.25 151.26a42.79 42.79 0 0 1 0 60.5l-60.5 60.5a42.79 42.79 0 0 1-60.5 0L557.38 678.38a42.79 42.79 0 0 1 0-60.51l-62.66-62.65c-117.3 87.93-284.44 78.59-391.12-28.1-116.94-116.94-116.95-306.55 0-423.5s306.56-116.96 423.52 0c106.68 106.67 116.03 273.8 28.09 391.1z"/><path fill="#256277" d="M617.88 557.37l-60.51 60.5-62.65-62.65a301.74 301.74 0 0 0 60.5-60.5l62.66 62.65z"/><path fill="#c3e4ed" d="M481.38 480.86c-91.89 91.9-240.87 91.9-332.76 0s-91.89-240.88 0-332.77 240.87-91.89 332.76 0 91.9 240.88 0 332.76z"/><path fill="#dcf3f9" d="M465.57 133.66q8.14 6.8 15.81 14.43a234.3 234.3 0 0 1 57.48 93.77L242.39 538.35a234.32 234.32 0 0 1-93.78-57.49q-7.56-7.58-14.43-15.82l331.38-331.37zM91.13 387.08a233.9 233.9 0 0 0 18.38 42.14l320.23-320.24a233.9 233.9 0 0 0-42.13-18.37z"/><path fill="#fff" d="M502.17 314.47a16.04 16.04 0 0 1-32.08 0c0-85.51-69.57-155.08-155.09-155.08a16.04 16.04 0 0 1 0-32.08c103.2 0 187.17 83.96 187.17 187.16zm-37.43 67.39a16.04 16.04 0 0 0-16.04 16.03v2.15a16.04 16.04 0 0 0 32.08 0v-2.15a16.04 16.04 0 0 0-16.04-16.03z"/><path fill="#4c4c4c" d="M538.47 92.26c-123.02-123.01-323.18-123.02-446.2 0s-123.03 323.18 0 446.2c108.8 108.81 277.97 121.37 400.72 37.71l43.27 43.28a58.92 58.92 0 0 0 9.77 70.27L697.3 840.98a58.88 58.88 0 0 0 83.18 0l60.5-60.51a58.88 58.88 0 0 0 0-83.19L689.73 546.03a58.92 58.92 0 0 0-70.27-9.77L576.17 493c83.67-122.76 71.1-291.92-37.7-400.73zm128.57 476.46l151.25 151.25a26.77 26.77 0 0 1 0 37.82l-60.5 60.5a26.77 26.77 0 0 1-37.82 0L568.72 667.03a26.77 26.77 0 0 1 0-37.81l60.5-60.5a26.77 26.77 0 0 1 37.82 0zm-109.66 26.47l-38.62-38.6a319.95 319.95 0 0 0 37.82-37.82l38.61 38.6-37.8 37.82zm-14.7-110.5a285.34 285.34 0 0 1-57.98 57.99c-110.91 82.73-269.08 73.76-369.74-26.9-110.51-110.5-110.52-290.33-.01-400.83s290.32-110.5 400.83 0c100.67 100.67 109.64 258.83 26.9 369.75zM137.64 137.65c-98 98-98 257.45 0 355.45s257.45 98 355.45 0 98-257.46 0-355.46-257.46-98-355.45 0zM470.4 470.4c-85.48 85.49-224.58 85.5-310.07 0s-85.5-224.58 0-310.07c85.48-85.49 224.59-85.49 310.07 0s85.5 224.58 0 310.07z"/></svg>